<svg xmlns="http://www.w3.org/2000/svg" version="1.1" xmlns:xlink="http://www.w3.org/1999/xlink" width="1000" height="1000"><style>
    #light-icon {
      display: inline;
    }
    #dark-icon {
      display: none;
    }

    @media (prefers-color-scheme: dark) {
      #light-icon {
        display: none;
      }
      #dark-icon {
        display: inline;
      }
    }
  </style><g id="light-icon"><svg xmlns="http://www.w3.org/2000/svg" version="1.1" xmlns:xlink="http://www.w3.org/1999/xlink" width="1000" height="1000"><g><g transform="matrix(1.953125,0,0,1.953125,0,0)"><svg xmlns="http://www.w3.org/2000/svg" version="1.1" xmlns:xlink="http://www.w3.org/1999/xlink" width="512" height="512"><svg id="a" data-name="Layer 1" xmlns="http://www.w3.org/2000/svg" viewBox="0 0 512 512">
  <path d="M231,1.1c-50.2,5.5-97.4,24.9-135.5,55.6-12.9,10.4-34,32.1-43.3,44.5C25.7,136.6,8.8,177,2.4,220.5c-2.2,14.7-2.9,42.8-1.5,57.5,4.2,43.3,18,83.3,40.5,117.4,41.4,62.9,104.7,103.2,179.1,114.2,14.7,2.2,42.8,2.9,57.5,1.5,43.3-4.2,83.3-18,117.4-40.5,62.9-41.4,103.2-104.7,114.2-179.1,2.2-14.7,2.9-42.8,1.5-57.5-5.1-52.4-23.8-98.8-55.8-138.5-10.4-12.9-32.1-34-44.5-43.3-35.4-26.5-75.5-43.2-119.3-49.8-12.1-1.8-48.7-2.6-60.5-1.3ZM321.9,235.9c34.7,60.7,63.1,110.5,63.1,110.7s-56.9.4-126.5.4-126.5-.2-126.5-.5c0-.8,126.3-221.6,126.6-221.2.1.1,28.7,49.9,63.3,110.6Z"></path>
</svg></svg></g></g></svg></g><g id="dark-icon"><svg xmlns="http://www.w3.org/2000/svg" version="1.1" xmlns:xlink="http://www.w3.org/1999/xlink" width="1000" height="1000"><g><g transform="matrix(1.953125,0,0,1.953125,0,0)"><svg xmlns="http://www.w3.org/2000/svg" version="1.1" xmlns:xlink="http://www.w3.org/1999/xlink" width="512" height="512"><svg id="a" data-name="Layer 1" xmlns="http://www.w3.org/2000/svg" viewBox="0 0 512 512">
  <path d="M231,1.1c-50.2,5.5-97.4,24.9-135.5,55.6-12.9,10.4-34,32.1-43.3,44.5C25.7,136.6,8.8,177,2.4,220.5c-2.2,14.7-2.9,42.8-1.5,57.5,4.2,43.3,18,83.3,40.5,117.4,41.4,62.9,104.7,103.2,179.1,114.2,14.7,2.2,42.8,2.9,57.5,1.5,43.3-4.2,83.3-18,117.4-40.5,62.9-41.4,103.2-104.7,114.2-179.1,2.2-14.7,2.9-42.8,1.5-57.5-5.1-52.4-23.8-98.8-55.8-138.5-10.4-12.9-32.1-34-44.5-43.3-35.4-26.5-75.5-43.2-119.3-49.8-12.1-1.8-48.7-2.6-60.5-1.3ZM321.9,235.9c34.7,60.7,63.1,110.5,63.1,110.7s-56.9.4-126.5.4-126.5-.2-126.5-.5c0-.8,126.3-221.6,126.6-221.2.1.1,28.7,49.9,63.3,110.6Z" style="fill: #fff; stroke: #fff; stroke-miterlimit: 10;"></path>
</svg></svg></g></g></svg></g></svg>